<?xml version="1.0" standalone="no"?>
<!DOCTYPE svg PUBLIC "-//W3C//DTD SVG 20010904//EN"
 "http://www.w3.org/TR/2001/REC-SVG-20010904/DTD/svg10.dtd">
<svg version="1.0" xmlns="http://www.w3.org/2000/svg"
 width="300.000000pt" height="300.000000pt" viewBox="0 0 300.000000 300.000000"
 preserveAspectRatio="xMidYMid meet">
<metadata>
Created by potrace 1.10, written by Peter Selinger 2001-2011
</metadata>
<g transform="translate(0.000000,300.000000) scale(0.100000,-0.100000)"
fill="#000000" stroke="none">
<path d="M1485 2583 c-210 -13 -385 -70 -544 -177 -39 -27 -57 -34 -66 -26
-10 8 -15 3 -23 -19 -10 -29 -10 -29 16 -15 31 16 53 3 47 -27 -3 -13 0 -19 8
-16 7 2 12 21 12 41 0 26 6 42 20 52 24 18 35 18 35 -1 0 -8 5 -15 11 -15 7 0
9 10 5 24 -5 19 -1 26 14 31 26 8 40 -1 40 -27 0 -15 5 -19 20 -15 11 3 20 1
20 -4 0 -5 10 -9 23 -9 20 1 20 2 5 11 -19 11 -25 39 -8 39 6 0 10 -4 10 -10
0 -5 12 -10 28 -9 18 0 22 3 12 7 -14 6 -16 15 -12 48 1 7 11 14 22 17 15 4
20 0 20 -16 1 -20 2 -20 11 -4 5 9 7 22 4 27 -3 6 2 10 11 10 10 0 32 5 49 11
31 12 85 6 85 -9 0 -7 -77 -42 -93 -42 -5 0 -22 -13 -40 -30 -18 -16 -38 -30
-46 -30 -8 0 -11 -6 -7 -16 3 -9 6 -20 6 -25 0 -5 5 -9 10 -9 6 0 10 9 10 19
0 30 33 34 80 10 l42 -22 -7 -73 c-8 -88 9 -128 58 -138 34 -7 52 5 61 38 3
12 18 29 33 36 16 8 36 21 47 30 10 8 36 19 59 25 39 10 67 37 30 30 -10 -2
-31 -4 -46 -4 -16 -1 -38 -11 -51 -26 -13 -14 -30 -25 -39 -25 -19 0 -57 -51
-57 -75 0 -13 -6 -16 -22 -11 -13 3 -26 6 -29 6 -4 0 -14 18 -23 41 -15 36
-15 44 -2 69 13 27 13 72 0 113 -4 14 -12 16 -41 11 -32 -6 -34 -5 -31 17 2
18 10 25 31 27 15 2 27 7 27 11 0 11 41 26 108 41 54 12 79 30 43 30 -12 0
-21 -4 -21 -10 0 -18 -76 -11 -99 9 -22 19 -22 19 51 27 166 18 336 -3 488
-59 36 -13 74 -27 85 -31 11 -4 32 -14 47 -22 15 -8 31 -16 35 -17 23 -6 71
-75 70 -100 -2 -30 -7 -33 -27 -14 -13 10 -13 10 -2 -3 19 -22 14 -32 -10 -25
l-23 6 24 -20 c29 -26 40 -26 40 -3 1 41 5 52 18 52 7 0 13 5 13 10 0 18 28
11 43 -10 8 -12 19 -20 24 -18 9 3 93 -79 93 -91 0 -3 15 -23 34 -44 18 -21
56 -84 84 -140 47 -96 58 -126 97 -269 18 -68 31 -77 21 -15 -14 87 -71 238
-122 323 -19 31 -34 63 -34 70 0 8 -4 14 -8 14 -5 0 -23 19 -40 43 -53 74
-145 157 -172 157 -9 0 -25 10 -36 22 -13 14 -14 19 -4 14 8 -4 -1 7 -20 24
-19 18 -54 41 -77 52 -24 10 -43 23 -43 27 0 4 -12 8 -27 9 -16 0 -66 14 -113
31 -111 39 -262 61 -375 54z m-389 -143 c-1 -17 -6 -30 -11 -29 -6 0 -9 7 -7
16 2 8 -1 12 -7 8 -6 -3 -11 -2 -11 4 0 8 24 28 36 31 1 0 1 -14 0 -30z"/>
<path d="M1500 2520 c0 -5 13 -10 29 -10 16 0 36 -6 43 -13 8 -8 21 -11 33 -7
17 6 14 9 -15 18 -64 19 -90 23 -90 12z"/>
<path d="M1606 2454 c-8 -22 -8 -24 8 -24 12 0 26 20 26 36 0 12 -29 2 -34
-12z"/>
<path d="M1770 2446 c0 -16 14 -27 52 -44 22 -9 30 -8 43 5 19 19 11 31 -9 14
-11 -10 -16 -9 -23 1 -4 7 -20 19 -35 25 -23 10 -28 10 -28 -1z"/>
<path d="M2030 2404 c0 -11 10 -30 23 -41 32 -29 44 -34 44 -18 0 8 -5 15 -11
15 -6 0 -21 15 -33 33 -19 27 -23 28 -23 11z"/>
<path d="M1570 2365 c0 -18 20 -20 20 -2 0 6 5 4 11 -6 12 -20 29 -14 29 11 0
13 -2 14 -9 3 -6 -9 -11 -10 -15 -2 -10 16 -36 13 -36 -4z"/>
<path d="M1013 2350 c-4 -16 -12 -20 -31 -18 -14 2 -27 -3 -30 -10 -3 -10 6
-12 33 -10 28 2 40 9 46 25 5 14 4 25 -2 29 -6 3 -13 -4 -16 -16z"/>
<path d="M1054 2350 c0 -11 4 -20 9 -20 5 0 4 -7 -3 -15 -8 -9 -9 -15 -2 -15
6 0 14 5 17 10 3 6 13 10 21 10 12 0 12 -4 4 -20 -6 -11 -20 -20 -30 -20 -21
0 -27 -15 -10 -25 19 -12 10 -30 -15 -31 -28 -2 -29 0 -15 27 6 11 7 19 1 19
-5 0 -11 -7 -15 -15 -3 -8 -9 -14 -13 -13 -4 2 -25 -10 -46 -26 -32 -24 -37
-34 -33 -58 5 -34 23 -58 42 -58 11 0 11 -5 3 -24 -8 -16 -8 -30 -1 -42 9 -15
12 -12 31 24 11 22 25 43 31 47 5 3 10 14 10 24 0 26 28 78 45 85 9 3 25 -4
37 -16 14 -14 18 -23 10 -26 -14 -4 -16 -32 -3 -32 21 0 81 47 87 68 3 12 12
22 20 22 22 0 29 48 10 69 -9 10 -16 25 -16 34 0 9 -4 17 -9 17 -17 0 -6 -50
12 -56 21 -7 22 -18 3 -33 -10 -8 -16 -9 -21 -1 -13 21 -24 9 -19 -19 3 -16 2
-37 -3 -46 -9 -15 -13 -13 -42 15 -18 19 -38 30 -46 26 -8 -3 -15 -1 -15 5 0
9 48 34 62 31 4 -1 6 11 5 26 -2 22 -9 29 -40 36 -20 5 -37 15 -37 23 0 7 -6
13 -13 13 -7 0 -13 -9 -13 -20z m-5 -156 c2 -2 -3 -12 -12 -22 -10 -10 -17
-26 -17 -34 0 -9 -6 -20 -13 -26 -18 -15 -57 12 -57 38 0 37 71 69 99 44z"/>
<path d="M1925 2315 c-19 -44 -28 -86 -28 -137 -1 -43 10 -58 42 -61 15 -1 21
-8 21 -25 0 -32 -50 -92 -77 -92 -27 0 -38 -16 -17 -24 9 -3 20 -6 24 -6 13 0
60 46 60 59 0 6 9 16 19 23 14 8 17 17 11 28 -5 9 -8 24 -7 35 1 12 -6 21 -22
25 -33 8 -51 58 -27 75 9 7 14 19 11 27 -3 8 -1 34 4 59 13 56 6 63 -14 14z"/>
<path d="M712 2237 c-29 -30 -39 -46 -32 -53 8 -8 0 -27 -26 -65 -123 -183
-184 -405 -170 -620 18 -285 160 -565 375 -743 101 -83 212 -149 314 -185 585
-206 1195 130 1352 745 13 54 25 120 25 147 0 28 4 47 11 47 8 0 10 20 6 68
-7 86 -23 122 -54 122 -26 0 -30 -12 -8 -30 8 -7 15 -27 15 -44 0 -44 -45
-137 -70 -143 -21 -6 -26 -18 -11 -27 12 -8 35 21 64 78 23 45 25 46 31 23 3
-14 1 -49 -5 -78 -6 -30 -12 -64 -14 -76 -2 -12 -6 -26 -9 -31 -3 -5 -10 -40
-16 -77 -12 -78 -42 -135 -70 -135 -16 0 -17 4 -8 37 5 20 25 66 43 102 18 37
38 93 44 125 14 73 14 79 1 71 -6 -4 -8 -10 -5 -14 9 -15 -25 -125 -64 -206
-41 -84 -68 -211 -37 -170 8 11 16 26 16 33 0 6 7 12 15 12 22 0 19 -17 -14
-85 -39 -81 -52 -97 -71 -85 -12 8 -11 13 8 39 28 38 28 50 1 25 -12 -10 -28
-35 -36 -54 -31 -71 -106 -156 -166 -186 -27 -14 -47 -28 -44 -30 3 -3 14 0
26 7 26 17 41 3 15 -15 -10 -8 -36 -30 -57 -50 -21 -20 -43 -36 -49 -36 -6 0
-20 -8 -31 -18 -11 -9 -17 -11 -13 -4 4 7 -14 -1 -39 -17 -26 -17 -60 -33 -76
-36 -16 -4 -29 -11 -29 -15 0 -10 -65 -30 -119 -36 -18 -3 -43 -10 -54 -16
-34 -18 -281 -14 -352 5 -33 9 -79 21 -102 27 -30 7 -43 16 -43 28 0 13 -2 14
-9 3 -7 -10 -13 -11 -30 -2 -27 15 -17 34 12 25 20 -6 20 -6 3 12 -18 17 -19
17 -32 0 -12 -18 -15 -18 -39 -2 -14 9 -25 21 -25 26 0 6 -7 10 -16 10 -9 0
-13 -5 -9 -12 4 -7 -1 -4 -9 6 -9 11 -16 16 -16 12 0 -4 -18 6 -39 23 -21 17
-42 31 -46 31 -4 0 -18 9 -32 20 -14 11 -23 20 -21 20 3 0 -12 18 -34 40 -22
22 -44 40 -49 40 -5 0 -9 7 -9 17 0 9 -3 13 -6 10 -8 -8 -64 61 -64 79 0 7 -3
14 -7 16 -13 5 -73 98 -73 111 0 7 -4 17 -9 22 -19 20 -51 86 -51 105 0 10 -4
21 -8 24 -8 5 -23 64 -38 146 -22 124 -10 409 17 426 5 3 6 -3 3 -13 -5 -15
-4 -16 5 -3 6 8 8 22 6 31 -3 9 -1 27 4 40 9 21 10 18 11 -21 1 -25 1 -65 1
-90 -1 -25 2 -58 7 -74 5 -20 9 11 10 97 2 134 20 209 62 257 11 13 20 32 20
44 0 12 14 48 30 80 17 32 30 65 30 72 0 7 10 22 22 34 12 11 17 20 12 20 -5
0 -29 -19 -52 -43z"/>
<path d="M1634 2265 c-10 -8 -14 -15 -8 -15 6 0 14 3 18 7 11 12 40 12 53 1 9
-7 13 -7 13 0 0 23 -48 28 -76 7z"/>
<path d="M2010 2232 c0 -23 6 -45 15 -52 8 -7 15 -22 15 -34 0 -17 2 -18 10
-6 7 11 8 7 6 -14 -2 -23 -8 -30 -27 -31 -13 -1 -28 3 -32 9 -5 7 -7 3 -5 -9
3 -16 10 -20 38 -18 61 5 62 5 55 30 -3 15 -1 23 7 23 9 0 9 3 0 12 -18 18
-15 28 8 28 11 0 20 5 20 10 0 13 -33 13 -47 -1 -13 -13 -44 32 -40 62 1 12
-4 24 -10 26 -9 3 -13 -8 -13 -35z"/>
<path d="M1600 2224 c0 -17 35 -36 62 -32 11 2 28 13 36 26 15 23 15 23 -12
11 -21 -10 -35 -10 -57 -2 -23 9 -29 9 -29 -3z"/>
<path d="M1185 2123 c6 -26 21 -42 36 -43 4 0 -1 16 -9 35 -19 42 -37 47 -27
8z"/>
<path d="M1791 2080 c-29 -62 -24 -80 24 -78 20 1 31 4 25 8 -7 5 -6 11 5 20
17 14 20 40 5 40 -6 0 -17 13 -23 29 l-13 30 -23 -49z m37 -28 c2 -13 -4 -25
-17 -32 -18 -9 -21 -8 -21 9 0 49 31 68 38 23z"/>
<path d="M1195 2061 c-4 -7 4 -11 20 -11 20 0 26 -4 23 -17 -4 -20 -36 -31
-98 -32 -28 -1 -54 -9 -70 -21 -20 -15 -21 -20 -8 -20 9 0 20 5 23 10 3 6 15
10 26 10 24 0 26 -20 2 -20 -16 -1 -16 -2 1 -15 27 -20 36 -19 36 5 0 26 16
26 23 0 4 -16 -3 -25 -36 -40 -22 -11 -43 -17 -46 -14 -3 4 0 9 7 11 6 3 12 8
12 13 0 5 -18 1 -40 -7 -25 -10 -40 -22 -40 -33 0 -11 -10 -20 -24 -24 -14 -3
-28 -15 -31 -26 -4 -11 -11 -18 -16 -15 -5 4 -9 -3 -9 -13 0 -11 -18 -36 -40
-56 -37 -33 -40 -40 -40 -86 0 -27 -4 -50 -10 -50 -5 0 -10 15 -10 33 0 39 -8
52 -37 61 -17 6 -23 3 -23 -8 0 -19 -4 -20 -30 -4 -42 27 -80 -41 -66 -116 8
-44 39 -54 55 -19 10 22 9 24 -4 20 -12 -5 -15 2 -15 38 0 50 8 57 61 59 31 1
39 -3 39 -17 0 -10 5 -27 10 -38 9 -15 7 -19 -7 -19 -14 0 -15 -2 -5 -9 8 -5
24 -4 37 3 18 8 24 21 27 58 5 48 25 77 116 171 65 68 68 70 91 58 14 -8 21
-8 21 -1 0 5 6 10 13 10 7 0 23 9 34 19 16 15 30 18 63 14 l43 -6 -8 34 c-4
19 -10 52 -14 74 -5 31 -11 41 -28 43 -11 2 -24 -2 -28 -7z m53 -90 c12 -35 1
-43 -40 -28 -33 11 -34 14 -11 39 23 26 40 22 51 -11z"/>
<path d="M1860 1955 c0 -3 7 -20 16 -37 9 -16 11 -27 5 -24 -6 4 -11 3 -11 -2
0 -12 29 -24 41 -16 15 9 10 40 -8 56 -24 20 -43 31 -43 23z"/>
<path d="M2234 1908 c5 -25 2 -34 -15 -46 -15 -10 -18 -17 -10 -25 6 -6 11
-19 11 -28 0 -11 11 -19 34 -23 50 -10 61 -56 13 -56 -15 0 -18 -3 -10 -11 6
-6 24 -8 40 -5 26 6 28 10 28 52 l0 44 -44 -6 c-30 -5 -42 -3 -37 4 3 6 0 17
-8 25 -12 12 -10 17 15 40 24 21 37 25 62 21 l32 -6 -28 26 c-17 16 -40 26
-59 26 -29 0 -30 -2 -24 -32z"/>
<path d="M2070 1921 c0 -5 18 -25 40 -44 25 -21 40 -42 40 -57 0 -13 3 -20 7
-17 3 4 12 2 19 -4 21 -17 26 8 7 32 -30 37 -97 99 -107 99 -3 0 -6 -4 -6 -9z"/>
<path d="M2008 1887 c-16 -6 -28 -17 -28 -24 0 -16 5 -16 29 -1 15 9 24 7 49
-10 16 -12 33 -22 37 -22 4 0 14 -8 21 -17 13 -17 13 -17 14 -1 0 10 -12 25
-27 35 -16 10 -35 25 -44 35 -9 10 -18 18 -20 17 -2 -1 -16 -6 -31 -12z"/>
<path d="M1810 1826 c0 -35 5 -49 23 -63 24 -19 24 -36 1 -63 -7 -8 -14 -27
-16 -42 -2 -15 -13 -38 -24 -50 -45 -50 -61 -92 -67 -170 -5 -66 -3 -79 14
-97 11 -12 16 -21 12 -21 -4 0 0 -5 10 -11 9 -5 17 -16 17 -23 0 -7 13 -24 28
-39 33 -32 74 -35 164 -11 56 14 62 14 79 -2 10 -9 19 -30 19 -46 0 -16 7 -40
16 -54 19 -28 14 -102 -7 -114 -8 -6 -12 -43 -13 -116 -1 -87 2 -108 14 -112
13 -5 13 -3 1 11 -7 10 -9 17 -3 17 6 0 10 34 10 88 0 62 4 97 16 120 20 39
20 75 0 114 -11 21 -14 43 -10 70 6 35 4 38 -17 38 -13 0 -28 5 -34 11 -9 9
-21 8 -50 -4 -21 -8 -60 -18 -85 -22 -39 -6 -52 -4 -77 15 -17 12 -31 27 -31
34 0 7 -13 29 -29 49 -27 34 -28 40 -23 113 4 57 10 83 23 98 11 11 19 23 19
26 0 4 11 19 25 34 14 15 25 37 25 50 0 13 9 33 20 46 11 13 20 26 20 30 0 4
12 7 28 7 15 1 52 10 82 22 l55 22 -48 -5 c-33 -4 -46 -2 -41 5 3 6 -8 3 -26
-6 -34 -17 -89 -13 -91 8 -1 7 -3 21 -4 32 -1 11 -2 28 -3 38 -4 37 -22 15
-22 -27z"/>
<path d="M605 1678 c3 -98 5 -110 30 -142 15 -20 30 -36 34 -36 12 0 86 -72
84 -81 -2 -5 2 -9 7 -9 6 0 10 -5 10 -11 0 -14 38 -47 68 -59 26 -11 29 -45 7
-77 -8 -11 -16 -41 -16 -65 -2 -55 51 -167 99 -209 19 -17 30 -34 26 -41 -4
-7 -3 -8 4 -4 7 4 12 4 13 -1 0 -4 2 -17 4 -28 2 -11 9 -51 15 -90 14 -80 39
-147 51 -139 5 3 3 12 -6 20 -8 8 -16 29 -19 47 -3 18 -11 70 -17 117 -12 81
-15 87 -54 122 -44 39 -96 138 -102 196 -2 22 4 46 18 68 27 45 17 96 -19 99
-24 2 -62 36 -62 57 0 16 -83 98 -98 98 -6 0 -21 15 -34 32 -18 26 -26 57 -35
138 l-12 105 4 -107z"/>
<path d="M2092 1740 c4 -13 80 -58 101 -59 4 -1 7 7 7 17 0 14 -8 18 -35 18
-20 0 -43 8 -56 20 -16 14 -21 15 -17 4z"/>
<path d="M2440 1728 c0 -7 9 -26 20 -43 22 -34 28 -14 8 30 -12 26 -28 34 -28
13z"/>
<path d="M2330 1681 c0 -4 8 -19 18 -32 22 -30 42 -75 42 -97 0 -9 9 -28 20
-42 19 -24 20 -24 20 -4 0 12 -7 27 -15 34 -8 7 -15 25 -15 41 0 15 -5 31 -10
34 -6 4 -17 22 -25 41 -13 31 -35 47 -35 25z"/>
<path d="M770 1579 c0 -5 7 -9 15 -9 14 0 14 -3 0 -30 -21 -40 -19 -49 11 -60
23 -9 25 -14 20 -45 -8 -40 9 -65 43 -65 12 0 21 -6 21 -12 1 -9 4 -8 13 2 7
8 23 21 35 28 21 12 22 11 16 -15 l-7 -28 21 25 c12 14 21 20 22 14 0 -14 44
-34 75 -34 15 0 25 -6 25 -14 0 -19 66 -76 89 -76 9 0 28 -11 41 -25 13 -14
19 -25 14 -25 -5 0 -2 -4 5 -9 12 -8 11 -13 -10 -30 -29 -24 -18 -28 16 -5 28
19 33 13 9 -11 -23 -23 -11 -30 19 -11 22 15 26 15 50 -4 14 -11 33 -20 43
-20 10 0 37 -9 61 -21 53 -25 56 -52 13 -94 -21 -20 -30 -38 -30 -61 0 -42
-19 -84 -38 -84 -8 0 -32 -5 -53 -12 -28 -8 -39 -17 -39 -31 0 -10 -10 -32
-21 -49 -19 -25 -26 -29 -53 -24 -25 4 -27 3 -13 -5 9 -6 15 -14 12 -20 -4 -5
10 0 29 12 20 12 36 25 36 29 0 5 6 15 13 22 6 8 17 23 23 33 6 11 28 23 50
28 42 8 57 29 70 97 4 19 18 47 32 62 50 55 24 108 -67 135 -31 9 -65 22 -77
29 -11 8 -23 12 -26 9 -2 -3 -17 17 -31 44 -20 36 -37 53 -65 64 -21 8 -52 30
-70 48 -38 39 -156 82 -185 67 -10 -5 -32 -8 -50 -6 -29 3 -32 6 -30 37 1 21
-6 41 -18 54 -10 12 -19 31 -19 44 0 20 3 21 26 13 14 -6 33 -19 43 -30 13
-17 21 -19 46 -12 40 12 79 -2 70 -26 -4 -12 -3 -14 5 -6 14 14 2 44 -16 44
-8 0 -34 18 -56 40 -23 22 -48 40 -55 40 -22 0 -15 -8 27 -35 41 -26 45 -45
11 -45 -10 0 -26 9 -36 20 -10 11 -26 20 -35 20 -10 0 -20 6 -23 14 -6 15 -47
29 -47 15z"/>
<path d="M1121 688 c-10 -28 -7 -33 15 -24 9 3 14 13 11 20 -4 10 2 16 16 19
18 3 17 5 -6 6 -20 1 -30 -5 -36 -21z"/>
<path d="M1470 370 c0 -5 14 -10 30 -10 17 0 30 5 30 10 0 6 -13 10 -30 10
-16 0 -30 -4 -30 -10z"/>
</g>
</svg>
